<svg version="1.0" xmlns="http://www.w3.org/2000/svg"
 width="984.000000pt" height="883.000000pt" viewBox="0 0 984.000000 883.000000"
 preserveAspectRatio="xMidYMid meet">
<g transform="translate(0.000000,883.000000) scale(0.100000,-0.100000)"
fill="#000000" stroke="none">
<path d="M3016 7998 c-4 -24 -10 -68 -12 -98 -3 -30 -7 -68 -9 -85 -5 -34 -13
-172 -20 -320 -6 -142 -7 -423 -2 -432 3 -5 8 -37 11 -73 3 -36 8 -80 11 -97
3 -18 7 -48 10 -65 3 -18 7 -53 10 -76 3 -24 7 -47 9 -51 3 -4 10 -36 15 -71
6 -34 29 -128 51 -209 23 -80 62 -218 86 -306 24 -88 51 -172 59 -187 8 -14
15 -32 15 -40 1 -7 9 -31 20 -53 11 -22 19 -44 20 -49 0 -11 17 -47 98 -216
31 -63 58 -117 61 -120 3 -3 13 -18 21 -35 8 -16 27 -49 42 -72 15 -23 28 -46
28 -52 0 -6 5 -11 10 -11 6 0 10 -5 10 -11 0 -6 16 -33 35 -59 19 -26 35 -53
35 -59 0 -6 4 -11 8 -11 4 0 16 -14 26 -32 11 -17 25 -39 32 -47 7 -9 35 -43
61 -76 63 -79 88 -108 148 -174 93 -101 130 -136 220 -211 88 -72 143 -119
215 -184 19 -17 57 -49 85 -71 66 -53 335 -321 335 -335 0 -5 7 -10 15 -10 19
0 19 13 1 76 -27 92 -38 296 -21 402 7 49 36 164 43 177 4 6 8 17 9 25 5 34
30 82 37 71 4 -6 5 -15 2 -20 -10 -15 54 -211 103 -315 72 -153 81 -173 81
-185 0 -6 4 -11 10 -11 5 0 12 -16 16 -35 3 -19 10 -38 15 -41 9 -5 34 -83 31
-96 -1 -5 3 -8 8 -8 6 0 10 -6 10 -14 0 -8 4 -17 10 -21 42 -26 61 431 24 607
-3 15 -7 40 -9 57 -2 16 -9 47 -14 68 -6 21 -13 54 -15 73 -6 44 -56 221 -66
235 -5 6 -13 30 -20 55 -7 25 -21 64 -31 87 -11 23 -24 65 -31 93 -6 27 -15
50 -19 50 -4 0 -11 14 -14 32 -9 37 -79 221 -101 260 -7 14 -14 31 -14 37 0
15 -80 186 -151 321 -16 30 -29 61 -29 68 0 7 -4 11 -9 8 -7 -5 -19 17 -25 46
0 4 -10 14 -21 23 -11 9 -14 13 -6 9 9 -5 12 -3 7 4 -4 7 -14 12 -21 12 -9 0
-12 6 -8 17 4 10 2 14 -4 10 -6 -4 -43 33 -84 83 -40 50 -76 90 -81 90 -4 0
-8 7 -8 15 0 8 -9 20 -20 27 -11 7 -20 18 -20 25 0 7 -9 18 -20 25 -11 7 -20
18 -20 25 0 7 -9 18 -20 25 -11 7 -20 16 -20 21 0 12 -272 347 -282 347 -4 0
-8 7 -8 15 0 8 -9 20 -20 27 -11 7 -20 18 -20 25 0 7 -9 18 -20 25 -11 7 -20
18 -20 25 0 7 -9 18 -20 25 -11 7 -20 16 -20 21 0 12 -232 297 -242 297 -4 0
-8 7 -8 15 0 8 -9 20 -20 27 -11 7 -20 18 -20 25 0 7 -9 18 -20 25 -11 7 -20
18 -20 25 0 7 -9 18 -20 25 -11 7 -20 16 -20 21 0 12 -272 347 -282 347 -4 0
-8 7 -8 15 0 8 -9 20 -20 27 -11 7 -20 18 -20 25 0 7 -9 18 -20 25 -11 7 -20
18 -20 25 0 7 -9 18 -20 25 -11 7 -20 18 -20 24 0 11 -32 44 -42 44 -3 0 -9
-19 -12 -42z"/>
<path d="M6056 6662 c-3 -5 -3 -54 0 -110 9 -185 -39 -408 -140 -656 -30 -72
-74 -195 -100 -273 -70 -215 -103 -357 -132 -573 -6 -49 -6 -286 1 -340 16
-125 71 -266 114 -297 19 -13 22 -12 27 4 31 94 104 194 206 284 34 30 69 61
77 70 9 8 34 29 56 45 22 16 51 39 65 52 14 12 30 22 37 22 6 0 13 4 15 8 2 5
30 28 63 53 33 24 62 47 63 52 2 4 10 7 17 7 8 0 27 12 43 28 16 15 55 50 88
78 99 86 225 217 284 293 14 18 30 38 35 44 11 13 103 147 120 175 6 9 21 34
34 57 51 84 103 189 142 285 41 105 48 133 27 112 -16 -16 -28 -15 -28 3 0 8
-9 20 -20 27 -11 7 -20 18 -20 25 0 7 -9 18 -20 25 -11 7 -20 18 -20 25 0 7
-9 18 -20 25 -11 7 -20 16 -20 21 0 12 -272 347 -282 347 -4 0 -8 7 -8 15 0 8
-9 20 -20 27 -11 7 -20 18 -20 25 0 18 -17 16 -32 -2 -7 -9 -27 -30 -44 -48
-53 -54 -184 -227 -252 -332 -36 -55 -70 -103 -75 -106 -5 -3 -8 -9 -7 -13 0
-3 -3 -13 -8 -22 -6 -11 -17 14 -36 88 -16 57 -32 108 -36 113 -4 6 -11 21
-15 35 -4 14 -17 45 -28 70 -11 25 -20 48 -19 53 1 4 -2 7 -8 7 -11 0 -52 75
-44 83 5 5 -30 74 -46 90 -4 5 -10 5 -14 -1z"/>
<path d="M5014 5565 c5 -11 12 -33 16 -50 5 -16 23 -68 40 -115 45 -118 43
-114 42 -122 -1 -5 2 -8 7 -8 5 0 15 -24 21 -52 7 -29 17 -59 23 -65 5 -7 6
-13 1 -13 -5 0 -4 -4 3 -8 12 -7 59 -169 75 -257 12 -69 12 -209 -1 -233 -19
-36 9 -42 67 -15 21 9 39 20 42 23 3 3 25 21 50 40 58 45 65 53 128 134 50 64
53 68 35 81 -10 8 -21 15 -25 15 -5 0 -8 7 -8 15 0 8 -9 20 -20 27 -11 7 -20
18 -20 25 0 7 -9 18 -20 25 -11 7 -20 18 -20 25 0 7 -9 18 -20 25 -11 7 -20
16 -20 21 0 12 -232 297 -242 297 -4 0 -8 7 -8 15 0 8 -9 20 -20 27 -11 7 -20
18 -20 25 0 7 -9 18 -20 25 -11 7 -20 18 -20 25 0 7 -9 18 -20 25 -11 7 -20
18 -20 24 0 6 -8 18 -17 25 -15 12 -16 12 -9 -6z"/>
<path d="M7565 5541 c-3 -5 -19 -12 -35 -16 -17 -4 -30 -11 -30 -16 0 -5 -9
-9 -19 -9 -11 0 -21 -3 -23 -8 -4 -10 -107 -62 -124 -62 -8 0 -14 -4 -14 -10
0 -5 -7 -10 -15 -10 -8 0 -15 -4 -15 -10 0 -5 -9 -10 -20 -10 -11 0 -20 -3
-20 -8 0 -4 -15 -14 -32 -21 -18 -8 -66 -35 -108 -60 -41 -26 -96 -57 -122
-70 -27 -13 -48 -28 -48 -33 0 -4 -5 -8 -11 -8 -7 0 -32 -15 -58 -33 -25 -17
-58 -38 -73 -46 -16 -8 -28 -18 -28 -23 0 -4 -6 -8 -13 -8 -8 0 -24 -11 -37
-25 -13 -14 -29 -25 -35 -25 -6 0 -22 -11 -35 -25 -13 -14 -28 -25 -33 -25 -5
0 -27 -16 -50 -35 -22 -19 -44 -35 -48 -35 -5 0 -22 -13 -39 -30 -17 -16 -34
-30 -38 -30 -5 0 -17 -8 -28 -18 -10 -10 -46 -38 -78 -62 -33 -25 -71 -55 -85
-68 -13 -12 -39 -32 -58 -43 -18 -11 -33 -25 -33 -30 0 -5 -5 -9 -10 -9 -12 0
-213 -200 -272 -271 -56 -65 -71 -85 -88 -109 -8 -12 -29 -41 -46 -64 -50 -68
-146 -240 -159 -286 -1 -3 -5 -13 -9 -22 -16 -35 0 -36 49 -3 28 19 69 49 93
65 24 17 45 30 48 30 3 0 17 11 32 25 15 14 31 25 35 25 5 0 29 14 54 30 24
17 48 30 54 30 5 0 9 4 9 8 0 5 12 15 28 23 57 29 131 88 211 169 31 31 51 46
48 35 -3 -11 -13 -49 -22 -85 -9 -36 -19 -72 -22 -80 -3 -8 -7 -17 -8 -20 -9
-25 -19 -51 -33 -80 -8 -19 -16 -37 -17 -40 -6 -21 -30 -60 -37 -60 -5 0 -7
-4 -4 -8 7 -12 -113 -165 -174 -222 -34 -31 -50 -54 -47 -64 5 -13 9 -13 36 0
16 8 43 16 60 17 17 1 31 6 31 10 0 5 8 7 18 5 9 -1 23 1 30 5 6 5 12 6 12 3
0 -3 21 1 48 9 26 8 65 16 87 19 22 3 67 10 100 16 33 6 78 13 100 15 22 3 99
14 170 25 72 11 171 25 220 31 140 16 141 17 305 64 85 25 162 47 170 50 8 2
17 4 20 5 3 1 8 2 13 1 4 0 7 3 7 9 0 5 8 10 18 10 9 1 35 9 57 20 22 11 44
19 48 20 15 0 327 148 337 160 3 3 19 12 35 20 17 8 59 31 94 52 34 21 65 38
67 38 3 0 14 9 26 20 12 11 28 20 35 20 7 0 13 4 13 10 0 5 14 17 32 26 18 9
38 23 46 30 7 8 17 14 20 14 4 0 25 16 47 35 22 19 43 35 47 35 10 0 50 35
108 93 26 26 53 47 60 47 13 0 5 15 -8 15 -11 0 -62 55 -62 65 0 6 -9 15 -20
22 -11 7 -20 18 -20 25 0 7 -9 18 -20 25 -11 7 -20 18 -20 25 0 7 -9 18 -20
25 -11 7 -20 16 -20 21 0 12 -232 297 -242 297 -4 0 -8 7 -8 15 0 8 -9 20 -20
27 -11 7 -20 18 -20 25 0 7 -9 18 -20 25 -11 7 -20 18 -20 25 0 7 -9 18 -20
25 -11 7 -20 16 -20 21 0 4 -47 66 -105 138 -58 72 -105 135 -105 140 0 12
-47 12 -55 0z"/>
<path d="M5390 3616 c0 -9 9 -20 19 -25 27 -15 89 -71 212 -191 165 -162 221
-214 259 -240 19 -13 37 -27 40 -30 3 -3 25 -16 50 -28 l45 -23 -105 6 c-163
8 -247 20 -268 38 -8 7 -18 11 -21 10 -21 -9 -180 64 -270 124 -69 46 -81 50
-81 31 0 -12 40 -98 50 -108 6 -6 16 -28 60 -125 17 -38 38 -83 45 -100 21
-47 28 -69 26 -82 -1 -7 2 -13 7 -13 6 0 13 -12 17 -27 3 -16 13 -41 20 -58 7
-16 21 -55 30 -85 9 -30 23 -68 30 -85 7 -16 16 -41 20 -55 3 -14 10 -34 15
-45 5 -11 21 -49 35 -85 43 -108 152 -321 208 -407 15 -24 27 -47 27 -53 0 -5
4 -10 8 -10 5 0 17 -16 28 -35 10 -19 22 -35 26 -35 5 0 8 -5 8 -11 0 -9 95
-143 125 -175 5 -6 23 -28 40 -49 16 -21 44 -53 62 -72 18 -18 33 -35 33 -38
0 -2 21 -26 48 -53 26 -27 63 -67 83 -88 36 -39 162 -155 229 -210 19 -16 48
-41 64 -57 17 -15 33 -27 37 -27 3 0 17 -9 30 -20 13 -11 29 -23 34 -28 6 -4
18 -11 28 -15 9 -3 17 -11 17 -17 0 -5 6 -10 13 -10 7 0 28 -13 47 -28 53 -44
271 -195 305 -212 17 -8 44 -24 60 -35 17 -12 44 -27 60 -35 30 -15 109 -60
155 -89 14 -8 27 -16 30 -16 3 0 44 -20 91 -43 48 -23 93 -42 102 -42 9 0 19
-4 22 -10 3 -5 12 -10 20 -10 8 0 26 -5 42 -12 15 -6 34 -13 41 -15 39 -11 39
-10 90 -30 9 -3 19 -7 22 -8 3 -1 39 -11 80 -24 41 -12 93 -28 115 -36 22 -8
49 -16 60 -18 11 -1 25 -5 30 -9 6 -3 26 -9 45 -13 19 -4 39 -10 45 -13 5 -3
18 -7 30 -8 11 -2 65 -15 120 -29 93 -24 232 -54 282 -60 26 -4 82 -15 106
-21 26 -8 20 15 -8 28 -14 6 -25 15 -25 20 0 13 -191 248 -202 248 -5 0 -7 4
-3 9 3 5 -6 18 -20 29 -14 11 -25 25 -25 31 0 6 -9 16 -20 23 -11 7 -20 16
-20 21 0 13 -151 197 -162 197 -5 0 -7 4 -3 9 3 5 -6 18 -20 29 -14 11 -25 25
-25 31 0 6 -9 16 -20 23 -11 7 -20 16 -20 21 0 13 -191 247 -202 247 -5 0 -7
4 -3 9 3 5 -6 18 -20 29 -14 11 -25 25 -25 31 0 6 -9 16 -20 23 -11 7 -20 16
-20 21 0 13 -191 247 -202 247 -5 0 -7 4 -3 9 3 5 -6 18 -20 29 -14 11 -25 25
-25 31 0 6 -9 16 -20 23 -11 7 -20 16 -20 21 0 13 -151 197 -162 197 -5 0 -7
4 -3 9 3 5 -6 18 -20 29 -14 11 -25 25 -25 31 0 6 -9 16 -20 23 -11 7 -20 16
-20 21 0 13 -191 247 -202 247 -5 0 -7 4 -3 9 3 5 -6 18 -20 29 -14 11 -25 25
-25 31 0 6 -9 16 -20 23 -11 7 -20 16 -20 21 0 13 -191 247 -202 247 -5 0 -7
4 -3 9 3 5 -6 18 -20 29 -14 11 -25 25 -25 31 0 6 -9 16 -20 23 -11 7 -20 16
-20 21 0 13 -151 197 -162 197 -5 0 -7 4 -3 9 3 5 -6 18 -20 29 -14 11 -25 25
-25 30 0 6 -8 17 -18 24 -18 13 -37 46 -34 60 1 5 -3 7 -10 5 -6 -1 -14 6 -16
17 -3 13 0 16 9 11 8 -6 10 -4 5 4 -5 7 -10 10 -14 7 -3 -3 -16 9 -29 26 -12
18 -23 28 -23 23 0 -5 -7 1 -16 13 -8 12 -20 20 -25 17 -5 -4 -9 -2 -9 3 0 9
-153 132 -164 132 -3 0 -14 8 -25 18 -10 9 -41 31 -70 47 -28 17 -51 34 -51
38 0 5 -4 6 -9 2 -5 -3 -12 -1 -15 4 -8 13 -158 91 -251 130 -27 12 -58 26
-67 31 -10 6 -23 10 -29 10 -6 0 -25 6 -42 14 -40 17 -69 29 -82 31 -5 1 -12
3 -15 4 -3 1 -16 4 -30 6 -14 2 -38 6 -55 10 -77 16 -105 16 -105 1z"/>
<path d="M2526 3533 c-4 -5 -11 -8 -14 -9 -4 0 -14 -3 -22 -7 -8 -3 -33 -11
-55 -17 -46 -14 -166 -57 -210 -76 -17 -7 -52 -19 -78 -26 -26 -6 -47 -16 -47
-21 0 -5 -7 -7 -15 -3 -8 3 -15 1 -15 -4 0 -6 -7 -10 -15 -10 -19 0 -101 -28
-149 -51 -21 -10 -42 -16 -47 -14 -4 3 -9 2 -11 -2 -4 -9 -108 -53 -126 -53
-6 0 -12 -5 -12 -11 0 -6 -7 -9 -15 -5 -8 3 -15 2 -15 -2 0 -7 -14 -13 -120
-48 -30 -11 -56 -22 -58 -26 -2 -5 -9 -8 -16 -8 -17 0 -136 -38 -158 -50 -13
-8 -141 -43 -198 -55 -8 -2 -15 -4 -15 -6 0 -1 -11 -3 -25 -4 -14 -2 -61 -10
-105 -20 -44 -9 -93 -18 -110 -20 -16 -3 -61 -9 -99 -15 -37 -6 -96 -13 -130
-16 -33 -3 -79 -8 -101 -10 -97 -12 -212 -17 -372 -18 -160 -1 -173 -2 -173
-19 0 -10 4 -16 9 -13 5 3 14 -1 21 -9 7 -8 16 -13 20 -10 5 3 11 1 14 -4 8
-12 346 -182 346 -174 0 3 9 -2 20 -12 11 -10 20 -15 20 -10 0 4 7 1 16 -6 9
-7 21 -14 28 -15 6 -1 34 -13 61 -25 28 -13 52 -24 55 -24 5 -2 10 -4 55 -21
11 -4 23 -8 27 -8 3 -1 10 -4 14 -8 4 -5 13 -8 20 -8 7 0 25 -5 41 -12 15 -6
33 -12 38 -14 6 -1 24 -8 40 -15 17 -6 35 -13 40 -14 6 -1 13 -3 18 -5 4 -1
10 -3 15 -4 10 -3 84 -26 102 -33 17 -7 26 -10 55 -17 11 -3 41 -12 68 -20 26
-8 47 -12 47 -9 0 3 6 1 13 -5 6 -5 28 -13 47 -17 19 -4 39 -10 45 -13 5 -3
18 -7 30 -8 11 -2 76 -17 145 -35 69 -17 134 -33 145 -34 11 -2 20 -4 20 -5 0
-2 30 -6 105 -14 36 -4 85 -9 110 -12 126 -15 412 -20 590 -11 58 4 159 9 225
12 131 7 146 8 250 25 39 6 77 11 85 12 8 0 29 4 45 8 17 5 48 11 70 14 22 3
64 12 93 21 30 9 56 14 60 11 3 -3 11 -1 18 4 6 6 16 10 20 8 14 -4 114 23
119 33 3 4 13 6 23 3 13 -5 14 -4 3 4 -8 6 -26 8 -40 5 -14 -2 -22 -1 -19 3 9
8 -110 154 -125 154 -6 0 -8 3 -4 6 7 8 -111 154 -125 154 -5 0 -7 4 -3 9 3 5
-6 18 -20 29 -13 11 -22 21 -20 24 2 2 -18 27 -44 56 -26 28 -46 54 -44 56 2
2 -7 13 -21 24 -14 10 -23 21 -21 24 2 2 -18 27 -44 56 -26 28 -46 54 -44 56
2 2 -7 13 -21 24 -14 10 -23 21 -21 24 3 2 -17 28 -43 56 -27 29 -47 54 -45
56 2 2 -8 13 -23 25 -15 11 -24 21 -20 21 4 0 -21 34 -55 75 -34 41 -66 75
-72 75 -6 0 -7 3 -4 6 3 4 -7 23 -23 42 -22 27 -27 39 -18 49 11 14 7 18 -6 6z"/>
<path d="M5115 2660 c4 -37 -84 -212 -175 -346 -38 -56 -76 -119 -85 -140 -50
-115 -151 -446 -161 -524 -9 -71 -11 -290 -3 -347 4 -32 10 -76 12 -98 5 -46
36 -202 45 -225 8 -22 8 -23 16 -55 4 -16 12 -38 17 -48 5 -10 7 -22 4 -27 -4
-6 -2 -10 4 -10 5 0 13 -15 17 -32 6 -32 34 -98 44 -108 3 -3 25 -43 49 -90
24 -47 52 -97 62 -112 11 -14 19 -30 19 -35 1 -16 39 -53 55 -53 12 0 15 5 10
21 -25 77 -25 296 -1 456 3 18 15 65 27 105 12 40 23 78 25 83 3 14 44 146 51
165 4 8 5 18 5 23 -1 4 5 24 13 44 8 19 17 45 19 57 2 11 13 57 25 101 11 44
23 94 27 110 4 17 8 32 9 35 2 8 17 83 21 105 3 11 9 51 15 88 l11 68 32 -42
c85 -115 247 -256 361 -314 17 -9 41 -22 55 -30 32 -19 60 -19 60 0 0 8 -4 15
-9 15 -11 0 -101 140 -101 157 0 7 -4 13 -10 13 -5 0 -10 8 -10 18 0 9 -6 29
-14 44 -18 33 -46 129 -51 173 -7 50 -46 188 -57 203 -6 6 -7 12 -3 12 4 0 2
7 -5 15 -6 8 -9 18 -6 24 3 5 3 11 -1 13 -5 1 -16 28 -27 58 -52 153 -152 312
-234 371 -18 13 -39 29 -45 34 -21 18 -76 46 -96 50 -17 3 -19 -1 -16 -25z"/>
<path d="M4089 1555 c-1 -3 -2 -9 -3 -14 0 -5 -4 -13 -8 -17 -5 -4 -8 -17 -8
-29 0 -12 -3 -25 -7 -29 -4 -3 -8 -17 -10 -29 -5 -29 -33 -136 -43 -162 -15
-40 -91 -191 -110 -220 -11 -16 -23 -37 -27 -45 -3 -8 -35 -52 -70 -98 -67
-87 -69 -92 -52 -92 17 0 133 53 137 62 2 4 12 8 23 8 10 0 19 3 19 8 0 4 15
14 33 22 17 7 41 22 51 32 11 10 24 18 29 18 5 0 31 16 57 35 26 19 50 35 53
35 5 0 69 55 109 93 10 9 20 17 22 17 2 0 25 21 51 47 45 46 46 48 23 54 -13
4 -19 7 -15 8 11 1 -113 151 -124 151 -5 0 -8 4 -6 8 3 10 -104 142 -115 142
-4 0 -9 -2 -9 -5z"/>
</g>
</svg>
